<?xml version="1.0" standalone="no"?>
<!DOCTYPE svg PUBLIC "-//W3C//DTD SVG 20010904//EN"
 "http://www.w3.org/TR/2001/REC-SVG-20010904/DTD/svg10.dtd">
<svg version="1.0" xmlns="http://www.w3.org/2000/svg"
 width="2048.000000pt" height="2048.000000pt" viewBox="0 0 2048.000000 2048.000000"
 preserveAspectRatio="xMidYMid meet">

<g transform="translate(0.000000,2048.000000) scale(0.100000,-0.100000)"
fill="#000000" stroke="none">
<path d="M11334 14459 c-92 -78 -185 -176 -210 -223 -24 -43 -28 -63 -32 -166
-5 -138 6 -173 91 -279 30 -36 85 -113 123 -170 44 -67 107 -143 174 -210 58
-59 118 -125 134 -148 l29 -43 -39 -45 c-77 -91 -107 -137 -150 -233 -24 -53
-48 -98 -53 -100 -10 -3 -181 105 -291 183 -98 71 -216 149 -314 210 -44 27
-116 84 -160 127 -45 43 -85 78 -91 78 -16 0 -31 -13 -38 -33 -4 -9 -18 -22
-32 -27 -29 -11 -32 -35 -8 -70 20 -29 19 -66 -7 -180 -32 -141 -50 -265 -52
-352 -2 -116 20 -174 94 -256 85 -93 92 -111 85 -203 -6 -78 -34 -207 -47
-222 -5 -5 -42 3 -83 17 -48 16 -97 26 -134 26 -81 0 -195 -34 -260 -77 l-55
-36 -42 20 c-70 35 -199 56 -336 57 -144 1 -202 -14 -276 -70 -24 -19 -48 -34
-52 -34 -4 0 -20 14 -37 31 -44 45 -100 70 -179 81 -117 15 -180 11 -317 -23
l-131 -31 -27 21 c-43 35 -112 67 -183 86 -123 33 -369 8 -439 -44 -26 -19
-30 -20 -71 -5 -24 8 -83 22 -133 29 -243 39 -241 39 -388 26 -78 -7 -178 -14
-222 -15 -68 -1 -87 -6 -128 -30 -62 -37 -112 -96 -138 -165 -17 -44 -24 -94
-32 -231 -12 -212 -6 -242 60 -306 l45 -44 -50 -55 c-58 -66 -82 -130 -82
-222 0 -82 35 -160 89 -200 45 -34 111 -91 111 -97 0 -2 -23 -12 -51 -22 -28
-10 -66 -32 -84 -49 -55 -50 -65 -100 -65 -329 l0 -201 30 -63 c16 -34 41 -78
56 -98 15 -19 25 -36 23 -37 -2 -1 -21 -11 -41 -21 -21 -10 -45 -30 -53 -43
-25 -38 -58 -228 -62 -364 l-5 -126 54 -48 c29 -26 63 -51 75 -56 25 -9 30
-24 10 -32 -7 -2 -23 -26 -37 -53 -22 -44 -25 -63 -28 -201 l-4 -153 35 -35
36 -36 -25 -16 c-14 -9 -35 -34 -47 -57 -18 -36 -21 -57 -21 -166 0 -154 20
-240 66 -287 l32 -33 -30 -32 c-49 -53 -64 -84 -64 -135 0 -62 33 -180 80
-279 l38 -82 113 -74 c63 -41 130 -83 149 -93 19 -10 58 -35 87 -56 47 -35 92
-59 166 -88 22 -8 27 -17 27 -43 0 -70 66 -133 215 -207 179 -88 326 -153 386
-170 35 -10 130 -39 211 -64 80 -25 173 -49 206 -53 49 -5 66 -12 88 -35 15
-16 32 -29 36 -29 5 0 28 -9 51 -19 64 -29 394 -98 672 -140 141 -21 293 -27
330 -12 12 5 30 3 45 -4 71 -36 397 -98 610 -115 69 -5 157 -13 196 -16 94 -9
190 10 250 48 53 33 52 33 229 3 87 -15 121 -15 260 -6 248 18 492 63 546 102
15 10 31 19 37 19 5 0 27 13 48 28 36 26 42 27 70 16 67 -27 218 -35 357 -19
360 43 484 96 526 225 l11 35 97 1 c110 0 179 18 318 85 127 60 321 231 370
326 19 35 18 116 0 167 -14 39 -14 39 25 84 48 54 60 90 67 204 7 108 -11 203
-44 236 -28 28 -28 27 -3 63 28 39 50 147 50 250 0 70 -4 91 -19 110 -18 23
-18 24 3 74 30 67 60 268 52 343 -13 108 -27 161 -56 200 l-28 40 29 28 c76
73 104 176 104 384 0 125 -3 154 -23 211 -12 36 -38 84 -57 106 l-33 39 33 27
c84 67 102 237 46 434 l-31 111 21 36 c11 20 26 36 33 36 20 0 72 61 102 120
27 51 29 63 29 172 0 102 -3 120 -21 145 -11 15 -30 32 -42 38 -26 11 -27 26
-8 64 8 15 17 56 21 92 3 35 13 94 21 131 28 132 13 381 -26 443 -11 17 -28
49 -39 72 -16 34 -27 44 -58 52 -21 6 -53 11 -71 11 -18 0 -45 9 -61 21 -30
22 -123 38 -223 39 -31 0 -60 5 -64 11 -4 7 -21 9 -48 4 -22 -4 -177 -6 -344
-5 l-303 2 -39 -41 c-47 -50 -59 -88 -66 -211 -3 -52 -13 -123 -22 -158 -15
-56 -20 -63 -51 -73 -24 -8 -81 -10 -174 -6 -207 9 -230 29 -247 211 -15 158
7 219 106 289 24 17 40 35 36 39 -4 4 -91 10 -192 12 -144 3 -198 1 -244 -11
-118 -30 -128 -52 -115 -230 5 -65 6 -131 3 -148 -27 -128 -150 -201 -293
-175 -47 9 -64 18 -107 61 -61 60 -118 169 -133 253 -28 154 0 236 103 308 34
23 84 64 113 91 51 48 52 50 47 95 -4 36 -1 52 14 71 25 32 35 25 160 -102 57
-57 114 -110 127 -117 33 -17 137 2 179 33 17 13 52 36 79 51 51 30 55 42 36
109 -8 31 -24 47 -100 100 -50 34 -153 111 -230 171 l-138 108 26 51 c14 28
36 80 49 115 89 234 246 397 573 590 l75 44 85 -4 c68 -2 92 -7 116 -24 17
-12 57 -36 89 -54 32 -17 93 -58 135 -90 212 -161 279 -240 475 -556 62 -101
84 -148 146 -310 37 -96 43 -123 51 -234 15 -211 31 -259 84 -246 22 6 25 12
25 48 0 23 -7 85 -15 138 -22 144 -32 258 -23 273 4 7 10 157 14 333 7 350 -8
581 -45 719 -11 39 -27 97 -36 130 -25 92 -81 197 -140 262 -65 73 -197 148
-345 198 -104 35 -105 35 -284 35 -194 0 -302 -17 -386 -60 -21 -11 -46 -20
-53 -20 -8 0 -26 -9 -39 -20 l-26 -20 -61 40 c-34 22 -95 57 -134 76 -141 71
-314 213 -378 310 -16 25 -26 29 -66 30 -27 1 -60 5 -74 9 -21 5 -34 0 -65
-26z m1531 -440 c203 -70 322 -154 380 -268 38 -76 101 -292 109 -376 4 -38
11 -95 16 -125 12 -72 17 -439 6 -442 -9 -3 -40 54 -104 191 -54 114 -261 394
-371 502 -43 41 -96 100 -119 131 -57 78 -118 133 -187 173 -57 32 -217 103
-317 139 -27 10 -48 21 -48 26 0 9 55 36 104 52 30 10 206 23 367 26 62 2 92
-4 164 -29z m-2050 -1049 c136 -130 188 -177 290 -262 44 -36 116 -103 160
-147 l79 -81 -12 -70 c-7 -39 -12 -97 -12 -130 0 -59 0 -60 -42 -86 -136 -86
-148 -95 -148 -114 0 -23 -13 -26 -125 -35 -44 -3 -118 -14 -165 -25 -49 -11
-89 -15 -94 -10 -5 5 -17 4 -27 -3 -15 -10 -23 -8 -40 10 -21 21 -21 23 -6 85
22 85 47 249 47 302 0 62 -21 104 -96 196 -113 139 -121 178 -84 421 29 189
20 179 98 112 37 -31 117 -105 177 -163z m-3149 -895 c201 -30 236 -42 310
-101 44 -34 91 -61 130 -74 50 -17 67 -28 83 -56 36 -60 101 -69 101 -12 0 48
-108 151 -172 163 -41 8 -82 40 -75 59 3 8 26 17 54 21 26 4 64 11 83 16 86
22 225 2 319 -46 47 -23 76 -50 104 -95 22 -35 42 -197 28 -232 l-10 -26 -58
17 c-32 10 -89 31 -127 46 -61 25 -77 27 -140 21 -87 -7 -204 -37 -248 -63
-22 -13 -34 -28 -36 -46 -5 -37 30 -44 95 -18 29 11 93 27 144 36 90 16 93 16
143 -6 49 -21 235 -88 361 -130 104 -35 109 -39 124 -101 14 -53 14 -57 -7
-83 -12 -15 -22 -35 -22 -45 0 -9 -16 -37 -35 -61 -19 -24 -40 -59 -46 -77 -8
-23 -16 -32 -26 -28 -8 3 -23 1 -34 -4 -15 -9 -19 -22 -19 -68 0 -61 -37 -158
-64 -168 -8 -3 -48 4 -88 15 -41 12 -91 21 -111 21 -20 0 -91 22 -159 49 -68
27 -137 53 -153 57 -54 12 -175 76 -218 114 -40 36 -42 40 -40 91 2 39 12 74
38 124 39 78 43 100 19 113 -25 14 -47 4 -72 -33 -21 -30 -27 -32 -62 -28 -37
5 -42 2 -97 -55 -75 -78 -93 -86 -161 -78 -112 13 -490 153 -534 197 -28 27
-28 28 -28 169 0 228 35 329 133 384 36 20 39 20 51 4 17 -23 73 -23 98 -1 14
13 53 20 151 29 73 6 141 10 152 8 11 -2 66 -10 121 -19z m1483 -68 c55 -27
126 -109 139 -162 6 -22 14 -84 18 -137 6 -89 5 -99 -16 -133 -32 -52 -55 -57
-205 -49 -130 7 -130 7 -156 38 -20 23 -49 38 -120 61 -82 26 -93 33 -90 50 3
11 5 72 5 135 1 63 5 125 9 137 8 22 44 42 132 75 68 25 218 17 284 -15z
m1277 18 c10 -8 33 -15 51 -15 17 0 34 -4 38 -9 3 -5 -9 -79 -26 -164 -18 -87
-29 -166 -25 -180 3 -14 24 -42 46 -63 35 -34 40 -43 40 -84 0 -25 -4 -50 -8
-57 -5 -8 -55 -10 -186 -6 -170 6 -180 7 -207 30 l-28 24 1 147 c2 138 0 151
-26 217 l-27 69 23 18 c46 36 208 85 284 87 16 1 39 -6 50 -14z m-700 -10
c215 -30 234 -43 281 -175 31 -88 34 -102 31 -197 -4 -116 -11 -129 -74 -143
-69 -17 -435 -6 -560 15 l-32 5 14 41 c12 34 13 64 3 177 -18 212 -17 217 43
248 34 18 124 42 159 43 14 1 75 -6 135 -14z m2314 -50 c10 -12 10 -27 0 -75
-9 -40 -11 -102 -8 -184 7 -156 25 -197 98 -229 27 -12 50 -28 50 -35 1 -43
-244 -67 -384 -38 -113 24 -140 44 -102 75 8 7 31 51 51 99 39 94 44 135 31
272 -12 119 -3 125 170 129 62 1 85 -3 94 -14z m-949 -110 c4 -67 13 -118 28
-155 58 -148 100 -202 185 -241 l41 -19 -260 0 c-143 0 -270 -3 -282 -6 -22
-6 -22 -6 -16 99 3 63 2 122 -5 148 -6 24 -14 81 -18 127 -6 79 -6 82 14 82
12 0 24 4 27 10 8 14 109 42 180 50 105 13 99 19 106 -95z m-436 55 c37 -72
57 -427 26 -464 -25 -30 -33 -6 -26 73 5 55 2 95 -9 144 -15 62 -23 277 -11
277 2 0 12 -14 20 -30z m2352 -61 c-43 -29 -93 -70 -112 -92 l-35 -41 0 41 c0
23 -2 47 -5 55 -5 13 17 28 95 70 20 10 55 18 84 18 l50 0 -77 -51z m568 22
c7 -22 104 -55 141 -48 35 6 106 -34 129 -73 37 -64 34 -309 -7 -530 -20 -110
-135 -215 -355 -324 -92 -46 -224 -96 -254 -96 -29 0 -92 110 -104 180 -4 25
-15 80 -25 123 -17 69 -24 83 -62 118 -24 23 -60 51 -80 65 -50 32 -65 60 -37
69 35 12 21 56 -26 79 -22 11 -42 22 -44 23 -13 9 83 216 117 252 55 58 204
142 282 160 72 17 89 18 207 20 102 1 112 -1 118 -18z m-818 -32 c17 -50 16
-196 -3 -259 -17 -57 -69 -120 -98 -120 -13 0 -15 4 -6 19 5 11 10 37 10 59 0
21 7 85 15 143 29 194 53 241 82 158z m-3289 -410 c201 -21 491 -78 520 -101
18 -15 15 -52 -8 -81 -11 -14 -20 -28 -20 -31 0 -3 -18 -31 -40 -62 -22 -32
-40 -65 -40 -74 0 -9 -12 -41 -27 -71 -23 -48 -27 -69 -31 -179 -2 -82 -9
-132 -18 -147 -25 -39 -103 -49 -289 -34 -90 6 -178 16 -196 21 -19 6 -83 15
-144 20 -197 19 -291 45 -315 89 -15 29 -12 176 5 251 21 90 74 231 97 256 10
11 18 29 18 40 0 19 20 34 63 48 11 3 21 15 24 26 4 14 11 19 23 15 9 -3 30 1
46 10 35 18 187 20 332 4z m601 -33 l23 -24 -44 10 c-71 16 -76 19 -53 28 34
14 51 11 74 -14z m709 -26 c11 -18 23 -20 140 -20 l127 -1 -27 -20 c-17 -13
-29 -33 -33 -59 -8 -46 -22 -52 -30 -12 -10 46 -30 77 -52 80 -32 5 -47 -29
-33 -76 5 -20 10 -86 10 -146 0 -88 3 -113 17 -128 21 -24 37 -23 55 4 11 16
25 22 54 22 44 1 55 22 34 61 -10 19 -8 39 10 112 13 48 28 94 33 101 7 9 73
12 269 12 219 0 264 -3 291 -16 52 -27 151 -96 161 -112 5 -9 35 -44 67 -78
37 -40 62 -77 68 -102 6 -22 18 -43 27 -46 9 -4 13 -13 10 -23 -3 -10 1 -43 9
-73 32 -118 19 -163 -65 -230 -75 -59 -297 -100 -549 -100 -191 0 -252 13
-296 61 -42 47 -55 92 -55 198 0 88 -13 121 -49 121 -9 0 -22 9 -29 20 -16 26
-63 26 -87 -1 -15 -16 -17 -25 -9 -47 5 -15 7 -45 2 -67 -4 -22 -7 -59 -7 -82
-1 -53 -36 -151 -65 -181 -22 -23 -25 -23 -297 -25 -377 -2 -391 3 -418 153
-6 36 -12 132 -14 214 l-2 150 24 6 c19 4 37 30 80 114 31 59 73 126 95 147
l38 39 177 0 c124 0 181 -4 189 -12 9 -9 15 -9 24 0 7 7 24 12 40 12 21 0 26
4 21 16 -3 9 0 20 8 25 20 12 23 11 37 -11z m1981 -31 c43 -26 37 -30 -79 -53
-141 -29 -521 -155 -552 -183 -24 -21 -44 -11 -68 36 -20 40 -27 105 -12 115
16 10 210 45 307 56 55 6 147 19 205 30 137 24 158 24 199 -1z m-5464 -67 c66
-22 134 -43 152 -46 17 -4 38 -18 47 -31 10 -15 29 -25 58 -30 134 -23 219
-85 337 -247 19 -25 26 -164 12 -202 l-12 -29 -157 5 c-119 4 -176 11 -237 28
-119 32 -274 90 -328 122 -70 41 -207 158 -218 185 -15 40 -11 151 8 186 26
51 67 97 85 97 10 0 22 9 28 20 10 19 11 19 58 1 26 -10 101 -37 167 -59z
m4665 19 c-5 -11 -10 -28 -10 -38 -1 -10 -9 -28 -19 -40 l-19 -23 -61 60 -62
60 91 0 c87 0 90 -1 80 -19z m953 -87 c54 -28 73 -59 96 -162 45 -203 32 -226
-165 -298 -167 -60 -305 -86 -495 -91 -118 -4 -173 -2 -188 7 -38 20 -51 69
-51 192 l0 113 40 36 c45 42 34 37 283 119 278 91 418 115 480 84z m-863 -193
c0 -11 -4 -23 -10 -26 -6 -4 -10 5 -10 19 0 14 5 26 10 26 6 0 10 -9 10 -19z
m1826 -35 c16 -12 19 -27 19 -98 0 -74 -4 -92 -30 -144 -17 -33 -41 -64 -55
-71 -14 -7 -37 -26 -51 -43 -21 -25 -38 -32 -89 -41 -69 -11 -90 -7 -90 15 0
8 -18 50 -41 92 -22 42 -39 86 -37 97 2 13 28 33 78 60 41 22 104 60 140 85
54 38 87 53 131 61 3 1 14 -5 25 -13z m-5591 -81 c33 -14 70 -25 83 -25 13 0
74 -12 135 -26 119 -27 196 -60 255 -110 50 -42 139 -91 182 -99 19 -4 46 -14
60 -23 14 -9 48 -28 75 -42 65 -34 78 -60 65 -136 -14 -80 -49 -174 -74 -203
-21 -23 -24 -23 -146 -18 -135 6 -258 36 -329 82 -40 25 -245 98 -304 109 -21
4 -74 21 -117 37 -77 30 -80 32 -91 72 -8 28 -9 84 -5 167 8 141 23 186 71
209 17 8 37 18 45 22 23 12 30 11 95 -16z m-1213 -196 c2 -6 41 -17 86 -25
174 -30 375 -114 399 -167 15 -33 -28 -334 -64 -449 -13 -42 -19 -49 -51 -58
-118 -33 -362 20 -429 92 -11 13 -33 46 -48 75 l-26 52 3 214 c3 233 4 238 63
263 37 16 62 17 67 3z m6324 -5 c27 -4 34 -12 49 -52 10 -26 24 -56 32 -67 21
-31 16 -70 -9 -82 -30 -14 -148 -60 -225 -89 -97 -36 -199 -91 -219 -117 -19
-24 -151 -78 -292 -118 -91 -26 -212 -35 -234 -17 -21 16 -42 163 -36 256 4
60 7 68 39 94 27 23 41 28 66 24 23 -3 40 1 58 15 31 25 125 56 329 109 217
57 302 65 442 44z m-3981 -180 c21 -14 26 -14 54 0 25 14 50 14 168 7 156 -11
272 -34 453 -91 137 -43 216 -87 226 -127 11 -42 -5 -174 -24 -207 -20 -36
-95 -76 -161 -86 -100 -16 -394 15 -626 65 -60 13 -136 29 -167 35 -88 17
-101 33 -109 126 -9 114 8 164 80 237 32 31 63 57 70 57 6 0 22 -7 36 -16z
m4329 -162 c30 -117 32 -177 11 -248 -25 -85 -63 -107 -257 -149 -154 -33
-248 -41 -271 -23 -9 7 -26 42 -36 78 -78 260 -77 242 -13 274 58 30 153 61
205 69 21 3 71 22 110 41 40 19 95 38 124 41 28 4 60 13 70 20 10 8 21 11 24
7 4 -4 18 -53 33 -110z m-5765 37 c30 -10 64 -16 76 -13 13 3 50 -6 87 -20 36
-14 70 -26 76 -26 9 0 130 -35 191 -56 11 -4 12 -7 3 -16 -17 -17 -15 -65 3
-72 20 -7 20 -70 0 -145 -12 -47 -78 -219 -87 -226 -27 -22 -56 -24 -160 -15
-271 24 -317 39 -410 131 -37 37 -72 79 -78 95 -16 40 -17 241 -2 285 35 101
149 131 301 78z m3303 -17 c96 -35 98 -36 98 -95 0 -67 -36 -190 -65 -221 -38
-41 -92 -49 -280 -43 -316 11 -521 43 -556 86 -21 26 -32 99 -23 157 8 57 46
104 82 104 15 0 40 9 56 19 27 18 47 19 330 16 272 -3 307 -5 358 -23z m973 7
c64 -33 85 -62 85 -118 0 -147 -60 -195 -270 -216 -73 -7 -465 20 -504 35 -36
13 -46 46 -46 145 0 79 2 86 28 110 33 31 60 41 75 26 15 -15 50 -14 65 1 19
19 180 35 362 37 149 1 169 -1 205 -20z m-3531 -300 c272 -32 463 -73 558
-121 78 -39 101 -59 123 -107 16 -37 16 -42 0 -97 -9 -32 -33 -86 -53 -121
-31 -54 -41 -64 -71 -69 -57 -11 -254 4 -338 25 -149 38 -337 123 -372 167
-30 39 -51 118 -51 195 0 109 27 156 84 145 15 -3 69 -11 120 -17z m4194 -45
c30 -20 62 -86 62 -125 0 -45 -27 -95 -69 -128 -27 -21 -59 -33 -126 -46 -49
-9 -115 -28 -145 -40 -78 -33 -252 -57 -415 -59 -167 -1 -217 13 -235 70 -16
48 6 151 38 181 30 27 127 59 226 74 39 6 132 22 206 36 289 54 419 65 458 37z
m-5859 -118 c94 -83 91 -77 91 -162 0 -86 -25 -207 -56 -269 -37 -76 -107 -84
-176 -20 -37 33 -38 36 -38 102 0 38 6 93 14 123 8 30 17 85 21 121 8 77 11
83 50 103 37 20 73 20 94 2z m4520 -16 c92 -12 149 -36 199 -83 38 -36 39 -54
13 -154 -27 -103 -47 -133 -115 -167 -52 -27 -69 -30 -176 -34 -130 -5 -238
10 -394 54 -134 38 -161 54 -180 110 -36 106 -6 234 55 234 14 0 57 7 95 15
141 31 366 42 503 25z m-885 -26 c65 -33 78 -69 74 -204 -3 -101 -6 -121 -28
-160 -30 -53 -57 -65 -195 -86 -108 -17 -466 -19 -616 -3 -172 17 -300 57
-329 102 -9 14 -15 64 -18 142 -2 66 -8 127 -13 137 -7 12 0 24 26 47 56 49
46 48 620 47 423 -1 441 -2 479 -22z m3038 -66 c11 -20 27 -81 35 -134 16 -92
16 -104 -1 -203 -20 -121 -36 -165 -73 -203 -53 -56 -161 -26 -184 50 -11 39
-8 158 6 214 6 23 3 29 -18 39 -34 16 -41 37 -19 57 10 10 27 37 37 62 24 57
47 89 63 90 7 0 17 11 22 25 11 29 43 45 84 42 23 -2 34 -10 48 -39z m-6277
12 c236 -34 337 -87 366 -193 16 -61 6 -280 -15 -312 -18 -28 -80 -41 -160
-32 -109 11 -402 129 -390 157 4 8 10 83 15 167 5 83 13 163 18 176 8 21 40
37 91 46 3 0 37 -4 75 -9z m900 -166 c131 -13 213 -54 264 -131 36 -54 40
-100 15 -208 -26 -118 -45 -150 -100 -169 -58 -19 -110 -20 -189 -2 -33 8 -84
17 -113 20 -82 10 -152 41 -211 93 -67 59 -82 91 -71 158 5 28 13 83 19 124
14 106 25 114 154 122 56 3 118 5 137 3 19 -2 62 -6 95 -10z m4943 -39 c64
-19 86 -47 102 -129 9 -51 9 -76 -1 -121 -20 -92 -13 -90 -359 -90 -162 0
-308 4 -324 8 l-28 8 4 121 c5 156 8 158 164 177 60 7 147 19 194 26 119 17
188 17 248 0z m-897 -144 c106 -22 166 -46 173 -70 3 -9 7 -54 11 -101 l5 -85
-32 -37 c-32 -37 -35 -38 -163 -57 -112 -17 -151 -18 -285 -11 -284 17 -318
28 -345 109 -13 40 -14 55 -5 72 7 12 10 33 7 48 -3 15 4 44 17 71 19 40 26
46 71 57 149 38 377 39 546 4z m-3195 -41 c380 -39 472 -61 515 -124 42 -62
62 -130 63 -214 l1 -77 -35 -18 c-31 -16 -57 -18 -255 -14 -212 4 -228 6 -424
46 -113 23 -217 49 -233 57 -48 25 -62 58 -66 160 -4 82 -2 97 17 127 50 82
103 89 417 57z m2387 -137 c39 -18 51 -30 69 -70 18 -42 20 -59 15 -158 -6
-118 -26 -212 -48 -227 -15 -10 -705 -3 -751 8 -69 16 -96 73 -105 225 -6 96
-1 125 39 228 l9 23 362 -4 c346 -3 364 -5 410 -25z m-1036 -6 c17 -9 41 -29
53 -44 19 -25 21 -38 18 -110 -3 -92 -23 -131 -74 -145 -38 -12 -281 -1 -419
18 -143 20 -210 49 -231 101 -29 67 -2 152 54 175 59 23 96 26 327 24 203 -2
245 -5 272 -19z m-3475 -50 c70 26 113 26 185 3 97 -32 103 -39 103 -125 0
-70 -22 -167 -43 -193 -8 -11 -47 -13 -173 -10 -214 4 -208 0 -202 158 4 112
12 144 45 182 14 16 17 16 33 -5 16 -20 21 -21 52 -10z m733 -102 c214 -22
405 -86 405 -135 0 -10 5 -22 11 -26 21 -12 3 -109 -33 -176 -43 -81 -74 -98
-181 -98 -91 0 -300 25 -372 45 -27 8 -74 17 -103 20 -66 9 -86 27 -77 71 3
19 1 42 -4 53 -7 12 -7 47 -1 101 13 117 25 148 58 153 58 9 163 6 297 -8z
m5261 -10 c70 -21 84 -40 96 -132 12 -94 5 -367 -11 -406 -6 -15 -21 -31 -35
-36 -36 -14 -343 -34 -413 -27 -88 9 -122 23 -130 54 -8 35 6 405 18 462 15
69 42 90 131 100 99 12 282 4 344 -15z m589 -21 c40 -43 50 -89 49 -224 -1
-184 -34 -290 -106 -341 -33 -24 -221 -54 -271 -43 -56 12 -57 17 -57 243 l0
208 30 59 c52 105 85 121 243 123 82 1 89 -1 112 -25z m-1316 -108 c57 -9 110
-21 117 -27 25 -21 12 -324 -17 -384 -11 -24 -27 -34 -84 -54 -143 -48 -502
-36 -561 20 -24 22 -24 24 -24 220 0 111 4 210 10 225 l11 27 222 -6 c122 -3
269 -13 326 -21z m-3713 -26 c43 -5 124 -14 179 -20 125 -14 250 -45 287 -71
43 -31 53 -80 39 -191 -13 -101 -35 -162 -71 -193 -21 -19 -36 -20 -219 -19
-108 1 -227 7 -266 13 -38 7 -97 17 -131 21 -72 9 -141 50 -151 88 -3 14 -6
66 -7 116 -1 83 2 96 28 143 16 29 45 68 64 88 33 33 39 35 102 35 37 0 102
-4 146 -10z m1127 -120 c61 -16 98 -32 118 -51 28 -26 29 -31 29 -111 -1 -125
-18 -279 -36 -319 -23 -53 -65 -69 -175 -69 -50 0 -120 5 -157 10 -37 6 -118
14 -180 18 -62 5 -115 12 -118 15 -17 16 -2 291 22 417 11 58 20 80 41 98 26
24 29 24 197 20 138 -4 188 -9 259 -28z m771 -30 c96 -12 183 -27 203 -37 20
-9 49 -35 65 -57 l30 -41 -5 -165 c-8 -226 -41 -340 -112 -381 -76 -44 -426
-50 -556 -10 -68 22 -101 47 -118 94 -19 48 -11 321 15 544 6 47 8 48 107 63
92 13 198 10 371 -10z m-3214 -89 c85 -70 92 -73 218 -81 125 -8 156 -16 186
-49 17 -18 18 -32 13 -123 -3 -59 -13 -126 -24 -158 -17 -53 -20 -56 -73 -74
-44 -15 -86 -18 -210 -19 -154 0 -156 0 -255 36 -98 36 -198 95 -214 126 -5 9
-16 60 -25 114 -17 99 -12 189 13 236 15 27 102 39 246 32 75 -3 83 -5 125
-40z m4235 -31 c87 -14 99 -32 92 -135 -7 -106 -35 -185 -73 -207 -48 -28
-266 -58 -422 -58 -123 0 -143 2 -182 23 l-45 22 0 162 c0 95 4 166 10 172 25
25 499 41 620 21z m-3457 -221 c13 -5 35 -9 48 -9 29 0 233 -66 251 -82 7 -5
27 -8 45 -7 18 2 39 0 46 -5 14 -9 16 -80 2 -106 -5 -10 -17 -78 -25 -151 -18
-157 -20 -164 -51 -206 -21 -27 -31 -32 -86 -38 -222 -24 -481 14 -578 87 -38
27 -53 76 -48 145 4 47 10 60 45 96 45 46 68 109 78 212 10 93 0 87 132 79 65
-4 128 -11 141 -15z m5582 -76 c-1 -135 -35 -229 -97 -264 -17 -10 -64 -19
-120 -22 -91 -6 -166 -29 -203 -62 -29 -27 -290 -67 -375 -58 -106 11 -115 27
-115 198 l0 115 25 0 c14 0 30 9 37 21 26 43 83 60 227 71 75 5 184 6 242 3
102 -6 265 12 323 35 47 19 56 13 56 -37z m-1068 -61 c20 -12 40 -35 46 -50 6
-15 12 -108 14 -206 l3 -180 -110 -22 c-60 -12 -166 -28 -235 -34 -132 -13
-185 -7 -204 22 -15 25 9 369 29 408 33 63 132 90 316 86 89 -2 111 -6 141
-24z m-656 -32 l51 -11 0 -177 c0 -106 4 -197 12 -226 9 -40 9 -52 -1 -61 -18
-17 -630 -8 -654 10 -15 10 -17 33 -17 161 1 238 -7 211 63 219 107 12 200 41
239 75 l36 31 110 -5 c61 -3 133 -10 161 -16z m-2846 -79 c145 -17 166 -22
182 -41 23 -28 23 -94 3 -198 -35 -172 -35 -172 -237 -172 -79 0 -170 5 -203
10 -225 35 -268 50 -291 106 -14 33 -14 40 1 76 8 22 20 74 25 116 18 137 -5
122 188 122 96 0 237 -9 332 -19z m-2001 -55 c27 -24 73 -53 103 -64 29 -11
87 -36 128 -56 41 -20 104 -45 140 -56 90 -28 191 -80 213 -111 18 -26 18 -28
-3 -135 -31 -151 -44 -179 -96 -210 -39 -23 -46 -24 -85 -14 -24 7 -79 36
-124 65 -45 29 -99 62 -121 73 -94 49 -228 148 -247 181 -33 61 -87 229 -87
273 0 8 16 33 36 56 48 57 77 56 143 -2z m2526 9 c94 -14 183 -25 199 -25 18
0 49 -15 81 -39 33 -25 79 -47 126 -61 202 -59 209 -62 209 -119 0 -45 -26
-150 -43 -169 -9 -12 -29 -13 -102 -8 -49 4 -153 11 -230 16 -77 6 -162 14
-190 20 -27 5 -108 14 -179 19 -71 6 -134 15 -139 20 -7 7 -4 35 7 85 11 43
19 120 20 180 l1 106 35 0 c19 0 112 -11 205 -25z m1539 -59 c32 -8 62 -20 67
-27 13 -20 3 -360 -12 -391 -30 -67 -130 -71 -684 -27 -172 14 -176 16 -191
104 -14 76 -18 184 -8 209 5 13 24 16 108 16 106 0 263 23 307 46 14 7 39 29
55 48 l29 35 135 0 c82 0 158 -5 194 -13z m2487 -113 c10 -11 14 -47 14 -122
0 -117 -18 -179 -58 -200 -67 -34 -256 -81 -328 -81 -44 0 -50 3 -65 32 -18
35 -15 129 5 136 27 9 39 35 46 94 8 71 18 88 50 88 32 0 218 49 230 61 16 16
91 11 106 -8z m-617 -197 c52 -21 61 -49 48 -139 -17 -109 -42 -160 -94 -190
-69 -40 -229 -64 -559 -84 -129 -8 -134 -3 -144 135 -4 64 -3 119 5 156 l11
56 122 0 c140 0 248 20 292 52 17 12 48 26 70 30 60 11 207 1 249 -16z m-5064
-22 c63 -12 148 -16 330 -16 223 0 255 -2 354 -24 127 -28 161 -45 152 -77 -4
-12 -13 -68 -21 -125 -11 -81 -21 -116 -48 -165 -45 -84 -60 -90 -177 -72
-316 47 -388 67 -577 159 -164 80 -177 96 -169 201 3 39 11 87 17 108 11 32
16 37 33 33 12 -4 59 -13 106 -22z m4230 -70 c9 -24 0 -136 -11 -148 -12 -13
-12 -49 0 -61 5 -6 11 -40 15 -78 6 -64 5 -68 -16 -76 -36 -14 -396 -2 -435
14 -53 22 -75 79 -83 215 -3 63 -8 122 -11 130 -3 13 24 15 195 18 145 2 203
6 217 16 27 19 120 -2 129 -30z m-2958 -35 c234 -33 258 -46 258 -140 0 -115
-32 -269 -55 -269 -3 0 -47 7 -98 14 -50 8 -162 20 -247 26 -85 7 -162 16
-172 21 -28 15 -58 60 -58 88 0 14 7 48 15 75 8 26 17 78 21 115 3 36 7 72 10
79 6 19 161 15 326 -9z m2272 -5 l46 -7 0 -79 c0 -44 5 -88 10 -99 6 -10 18
-57 26 -104 21 -111 12 -137 -54 -160 -104 -35 -359 -44 -423 -15 -37 17 -67
86 -89 204 -11 56 -22 111 -26 124 -6 22 -5 22 87 22 118 0 167 20 201 79 l23
41 76 0 c42 0 97 -3 123 -6z m-1527 -35 c147 -26 191 -43 200 -77 8 -32 -14
-231 -33 -298 -17 -62 -21 -64 -166 -64 -111 0 -201 15 -300 51 -43 16 -59 27
-68 50 -26 61 -4 264 30 288 12 8 20 25 20 42 l0 29 100 0 c58 0 150 -9 217
-21z m459 -54 c82 -9 176 -22 209 -29 33 -8 94 -21 135 -30 147 -33 140 -24
140 -185 0 -211 -5 -216 -230 -216 -197 0 -369 35 -427 88 -27 24 -29 39 -7
73 12 18 14 31 7 47 -5 12 -6 39 -1 62 4 22 8 77 9 123 0 45 4 82 8 82 5 0 75
-7 157 -15z m3129 -55 c31 -59 21 -92 -51 -175 -116 -133 -255 -225 -418 -276
-78 -24 -178 -26 -197 -3 -21 25 -62 163 -63 213 l-1 44 73 18 c40 10 90 27
110 38 89 46 201 94 252 108 141 36 247 61 262 62 10 1 24 -12 33 -29z m-5623
-148 c191 -93 244 -110 498 -152 179 -31 160 -17 160 -113 0 -99 -13 -131 -56
-135 -17 -2 -100 18 -185 43 -85 26 -190 57 -235 70 -80 24 -156 57 -369 160
-116 56 -189 112 -183 141 2 10 23 30 48 44 25 14 58 45 73 68 l28 42 39 -49
c34 -43 58 -59 182 -119z m4771 -99 c20 -23 62 -136 72 -191 4 -25 2 -63 -5
-93 -17 -69 -60 -111 -144 -139 -59 -19 -113 -30 -321 -61 -71 -11 -265 -7
-298 6 -31 13 -35 37 -30 201 l6 161 101 31 c55 17 166 43 246 58 80 15 161
30 180 34 19 4 67 8 106 9 56 1 74 -3 87 -16z m-3519 -73 c435 -53 473 -59
506 -78 35 -19 35 -20 32 -83 -4 -115 -34 -262 -57 -285 -20 -20 -123 -42
-143 -30 -4 2 -46 9 -92 16 -192 25 -364 53 -515 86 -248 53 -287 71 -261 123
25 50 27 77 6 96 -11 10 -20 27 -20 37 0 33 38 95 72 117 31 20 42 21 217 15
100 -3 215 -9 255 -14z m2648 -16 c21 -6 25 -18 42 -126 17 -101 8 -160 -31
-227 -29 -51 -50 -70 -74 -71 -9 0 -36 -11 -61 -24 -96 -51 -325 -81 -562 -74
-229 7 -250 22 -267 190 -5 57 -15 120 -20 142 -6 21 -9 39 -7 40 2 1 20 8 41
15 34 11 41 11 58 -4 16 -15 32 -17 106 -12 49 3 102 12 118 20 17 8 71 18
120 22 135 10 277 32 324 51 23 9 51 30 63 46 20 29 23 30 77 23 31 -3 64 -8
73 -11z m-1447 -125 c58 -14 141 -24 235 -28 l145 -6 7 -45 c3 -25 7 -94 7
-153 1 -134 -11 -167 -71 -199 -39 -21 -54 -23 -183 -22 -77 1 -178 7 -225 13
-47 6 -125 15 -175 21 -118 14 -325 58 -357 77 -4 2 -3 15 3 30 8 22 42 236
51 327 l3 30 156 0 c124 1 160 4 179 17 22 15 27 14 80 -12 30 -16 96 -38 145
-50z"/>
<path d="M7334 11986 c-9 -37 40 -119 105 -175 115 -99 202 -136 216 -91 9 29
-3 43 -87 99 -82 55 -130 103 -156 157 -12 27 -22 34 -44 34 -21 0 -29 -6 -34
-24z"/>
<path d="M7981 11587 c-7 -9 -11 -26 -9 -38 3 -19 16 -24 113 -44 240 -50 340
-86 487 -178 91 -57 121 -59 126 -10 3 30 -1 36 -65 77 -100 64 -157 91 -279
129 -212 67 -350 90 -373 64z"/>
<path d="M13584 11797 c-16 -13 -60 -40 -97 -61 -37 -21 -126 -81 -197 -134
-72 -54 -164 -115 -207 -137 -91 -47 -133 -80 -133 -105 0 -49 78 -70 98 -26
7 15 41 40 93 67 45 24 129 78 187 122 57 43 148 103 201 133 115 66 154 103
142 136 -12 32 -52 35 -87 5z"/>
<path d="M9160 11205 c-25 -30 -7 -49 75 -78 44 -15 115 -34 158 -42 42 -8
112 -21 155 -29 42 -8 91 -18 108 -21 25 -6 37 -2 53 14 12 12 21 25 21 30 0
21 -33 39 -82 46 -29 4 -69 11 -88 15 -19 5 -69 14 -110 20 -41 6 -110 22
-153 35 -90 29 -120 31 -137 10z"/>
<path d="M11460 11050 c-129 -3 -241 -9 -247 -13 -21 -13 -15 -55 9 -68 29
-16 525 -7 556 10 28 15 29 57 3 71 -11 5 -35 9 -53 8 -18 -1 -139 -5 -268 -8z"/>
<path d="M10128 11030 c-19 -12 -24 -55 -8 -65 10 -6 349 -20 499 -20 69 0 86
3 95 18 19 30 -5 51 -65 59 -105 14 -503 20 -521 8z"/>
<path d="M11874 13115 c-21 -32 -32 -125 -24 -204 11 -117 90 -150 132 -55 16
38 19 62 16 141 -3 89 -5 96 -31 119 -37 31 -72 31 -93 -1z"/>
<path d="M12231 13121 c-33 -21 -55 -239 -29 -295 18 -40 76 -51 107 -21 18
17 40 132 41 208 0 52 -3 62 -29 88 -29 29 -64 37 -90 20z"/>
</g>
</svg>
